<svg xmlns="http://www.w3.org/2000/svg" viewBox="3 3 16 16"><defs><linearGradient id="a" gradientUnits="userSpaceOnUse" y1="986.67" x2="0" y2="-2.623"><stop stop-color="#ffce3b"/><stop offset="1" stop-color="#fef4ab"/></linearGradient></defs><path d="M11 3c-4.432 0-8 3.568-8 8s3.568 8 8 8 8-3.568 8-8-3.568-8-8-8" fill="#da4453"/><path d="M12.812 11.2l1.98-1.98a.619.619 0 00.188-.458.622.622 0 00-.188-.458l-.916-.916a.63.63 0 00-.458-.188.622.622 0 00-.458.188l-1.98 1.98L9 7.388a.63.63 0 00-.458-.188.622.622 0 00-.458.188l-.916.916a.622.622 0 00-.188.458c0 .18.062.332.188.458l1.98 1.98-1.98 1.98a.619.619 0 00-.188.458c0 .18.062.332.188.458l.916.916a.622.622 0 00.458.188c.18 0 .332-.062.458-.188l1.98-1.98 1.98 1.98a.622.622 0 00.458.188c.18 0 .332-.062.458-.188l.916-.916a.619.619 0 00.188-.458.622.622 0 00-.188-.458l-1.98-1.98" fill="#fff"/></svg>